<?xml version="1.0" encoding="UTF-8"?><svg id="b" xmlns="http://www.w3.org/2000/svg" width="576.77002" height="666" viewBox="0 0 576.77002 666"><g id="c"><polygon points="576.77002 166.5 384.51025 277.5 288.39014 333 0 166.5 288.39014 0 384.51025 55.5 576.77002 166.5" style="fill:#808083; stroke-width:0px;"/><polygon points="288.39014 333 288.39014 666 0 499.5 0 166.5 288.39014 333" style="fill:#00030a; stroke-width:0px;"/><polygon points="291.38991 334.73291 386.01003 280.09814 573.76979 171.69629 573.76979 497.76807 291.38991 660.8042 291.38991 334.73291" style="fill:#e5e6e6; stroke-width:0px;"/><path d="m570.76979,176.89224v319.14365l-276.37988,159.57166v-319.14362l93.12012-53.76776,183.25977-105.80392m6-10.39224l-192.25977,111-96.12012,55.5v333l288.37988-166.5V166.5h0Z" style="stroke-width:0px;"/><polygon points="483.6526 440.54041 291.3987 551.53851 291.3987 558.46588 483.6526 447.46777 483.6526 440.54041" style="stroke-width:0px;"/><polygon points="100.63014 108.40198 94.62966 111.86621 288.39577 223.73737 294.39626 220.27319 100.63014 108.40198" style="stroke-width:0px;"/><polygon points="486.64917 220.27053 294.38501 109.26644 291.38696 110.99733 288.38501 112.73067 480.64868 223.7347 486.64917 220.27053" style="stroke-width:0px;"/><polygon points="576.76979 275.7785 387.5237 385.04077 387.5237 391.96814 576.76979 282.70679 576.76979 275.7785" style="stroke-width:0px;"/><polygon points="99.13747 329.54065 99.13747 336.46802 294.38991 449.19489 294.38991 442.26752 99.13747 329.54065" style="fill:#e5e6e6; stroke-width:0px;"/><polygon points="195.26637 502.96844 195.26637 496.04108 .00026 383.29938 .00026 390.22675 195.26637 502.96844" style="fill:#e5e6e6; stroke-width:0px;"/></g></svg>