<svg width="3081" height="1961" xmlns="http://www.w3.org/2000/svg" xmlns:xlink="http://www.w3.org/1999/xlink" xml:space="preserve" overflow="hidden"><g transform="translate(-1277 -357)"><path d="M2242.5 974C2242.5 650.085 2505.09 387.5 2829 387.5 3152.92 387.5 3415.5 650.085 3415.5 974 3415.5 1297.92 3152.92 1560.5 2829 1560.5 2505.09 1560.5 2242.5 1297.92 2242.5 974Z" stroke="#FFFFFF" stroke-width="4.58333" stroke-miterlimit="8" fill="#123EB7" fill-rule="evenodd" fill-opacity="0.501961"/><text fill="#00030A" font-family="FS Me Pro,FS Me Pro_MSFontService,sans-serif" font-weight="400" font-size="124" transform="matrix(1 0 0 1 2580.14 756)">Software </text><text fill="#00030A" font-family="FS Me Pro,FS Me Pro_MSFontService,sans-serif" font-weight="400" font-size="124" transform="matrix(1 0 0 1 2605.14 889)">Security </text><text fill="#00030A" font-family="FS Me Pro,FS Me Pro_MSFontService,sans-serif" font-weight="400" font-size="124" transform="matrix(1 0 0 1 2630.35 1021)">Testing</text><path d="M2665.5 1707C2665.5 1383.09 2928.08 1120.5 3252 1120.5 3575.92 1120.5 3838.5 1383.09 3838.5 1707 3838.5 2030.92 3575.92 2293.5 3252 2293.5 2928.08 2293.5 2665.5 2030.92 2665.5 1707Z" stroke="#FFFFFF" stroke-width="4.58333" stroke-miterlimit="8" fill="#123EB7" fill-rule="evenodd" fill-opacity="0.501961"/><text fill="#00030A" font-family="FS Me Pro,FS Me Pro_MSFontService,sans-serif" font-weight="400" font-size="124" transform="matrix(1 0 0 1 3028.34 1712)">Vulnerability </text><text fill="#00030A" font-family="FS Me Pro,FS Me Pro_MSFontService,sans-serif" font-weight="400" font-size="124" transform="matrix(1 0 0 1 3122.87 1845)">Research</text><path d="M1818.5 1707C1818.5 1383.09 2081.31 1120.5 2405.5 1120.5 2729.69 1120.5 2992.5 1383.09 2992.5 1707 2992.5 2030.92 2729.69 2293.5 2405.5 2293.5 2081.31 2293.5 1818.5 2030.92 1818.5 1707Z" stroke="#FFFFFF" stroke-width="4.58333" stroke-miterlimit="8" fill="#123EB7" fill-rule="evenodd" fill-opacity="0.501961"/><text fill="#00030A" font-family="FS Me Pro,FS Me Pro_MSFontService,sans-serif" font-weight="400" font-size="124" transform="matrix(1 0 0 1 2093.89 1712)">Secure </text><text fill="#00030A" font-family="FS Me Pro,FS Me Pro_MSFontService,sans-serif" font-weight="400" font-size="124" transform="matrix(1 0 0 1 2037.6 1845)">Products</text><path d="M2153.24 2162.23 2141.46 2170.27C2140.54 2170.89 2139.55 2171.41 2138.5 2171.79L2127.2 2176 2114.9 2179.84 2102.39 2183.04 2089.7 2185.61 2076.87 2187.57 2063.93 2188.91 2050.93 2189.67 2037.89 2189.84 2024.86 2189.45 2011.88 2188.5 1998.96 2186.99 1986.16 2184.95 1973.51 2182.37 1961.04 2179.28 1948.79 2175.66 1936.8 2171.54 1925.1 2166.92 1913.72 2161.8 1902.71 2156.19 1892.1 2150.1 1881.94 2143.52 1872.24 2136.46 1863.07 2128.93 1854.46 2120.92 1846.45 2112.44C1841.25 2106.91 1841.52 2098.21 1847.06 2093.01 1852.59 2087.81 1861.29 2088.08 1866.49 2093.61L1873.23 2100.82 1880.57 2107.71 1888.47 2114.26 1896.91 2120.45 1905.84 2126.27 1915.23 2131.71 1925.04 2136.74 1935.23 2141.35 1945.76 2145.54 1956.6 2149.3 1967.7 2152.59 1979.02 2155.43 1990.52 2157.8 2002.17 2159.68 2013.92 2161.07 2025.72 2161.96 2037.55 2162.35 2049.36 2162.21 2061.11 2161.56 2072.77 2160.37 2084.28 2158.65 2095.62 2156.39 2106.74 2153.58 2117.61 2150.23 2128.92 2146.02 2125.96 2147.55 2137.75 2139.51C2144.03 2135.23 2152.58 2136.85 2156.86 2143.12 2161.14 2149.4 2159.52 2157.95 2153.24 2162.23ZM2110.71 2124.78 2202.03 2111.74 2157.67 2192.61Z" fill="#F57118"/><text fill="#00030A" font-family="FS Me Pro,FS Me Pro_MSFontService,sans-serif" font-weight="700" font-size="73" transform="matrix(1 0 0 1 1343.33 1999)">SBOMs, SCA,</text><text fill="#00030A" font-family="FS Me Pro,FS Me Pro_MSFontService,sans-serif" font-weight="700" font-size="73" transform="matrix(1 0 0 1 1338.47 2079)">supply chain</text><text fill="#00030A" font-family="FS Me Pro,FS Me Pro_MSFontService,sans-serif" font-weight="700" font-size="73" transform="matrix(1 0 0 1 1321.85 2158)">cybersecurity</text><path d="M2810.97 1501.11 2799.19 1509.15C2798.27 1509.77 2797.28 1510.28 2796.23 1510.67L2784.93 1514.88 2772.63 1518.72 2760.12 1521.92 2747.43 1524.49 2734.6 1526.44 2721.66 1527.79 2708.66 1528.55 2695.62 1528.72 2682.59 1528.33 2669.6 1527.37 2656.69 1525.87 2643.89 1523.83 2631.24 1521.25 2618.77 1518.15 2606.52 1514.54 2594.53 1510.42 2582.83 1505.8 2571.45 1500.68 2560.44 1495.07 2549.83 1488.97 2539.67 1482.4 2529.97 1475.34 2520.8 1467.81 2512.19 1459.8 2504.18 1451.32C2498.98 1445.79 2499.25 1437.08 2504.79 1431.88 2510.32 1426.68 2519.02 1426.95 2524.22 1432.49L2530.96 1439.7 2538.3 1446.59 2546.2 1453.14 2554.64 1459.33 2563.57 1465.15 2572.96 1470.58 2582.77 1475.62 2592.96 1480.23 2603.49 1484.42 2614.33 1488.17 2625.43 1491.47 2636.75 1494.31 2648.25 1496.68 2659.9 1498.56 2671.65 1499.95 2683.45 1500.84 2695.28 1501.22 2707.09 1501.09 2718.84 1500.44 2730.5 1499.25 2742.01 1497.53 2753.35 1495.27 2764.47 1492.46 2775.34 1489.1 2786.65 1484.9 2783.69 1486.43 2795.48 1478.39C2801.76 1474.11 2810.31 1475.73 2814.59 1482 2818.87 1488.28 2817.25 1496.83 2810.97 1501.11ZM2768.44 1463.66 2859.76 1450.62 2815.4 1531.49Z" fill="#F57118"/><text fill="#00030A" font-family="FS Me Pro,FS Me Pro_MSFontService,sans-serif" font-weight="700" font-size="73" transform="matrix(1 0 0 1 2434.65 1399)">Fuzzing</text><path d="M340.527-11.1226 354.779-10.4798C355.89-10.4297 356.991-10.2449 358.057-9.92967L369.628-6.50929 381.768-2.20731 393.697 2.74042 405.39 8.29979 416.827 14.4376 427.985 21.1213 438.841 28.3193 449.374 36.0004 459.561 44.1344 469.38 52.6914 478.807 61.6418 487.821 70.957 496.398 80.6084 504.514 90.5679 512.145 100.808 519.266 111.301 525.854 122.021 531.882 132.941 537.324 144.034 542.153 155.276 546.341 166.639 549.859 178.099 552.676 189.629 554.761 201.202 556.079 212.79C556.919 220.338 551.481 227.137 543.934 227.976 536.387 228.816 529.588 223.378 528.748 215.831L527.686 206.016 525.949 196.103 523.556 186.123 520.523 176.108 516.871 166.094 512.619 156.114 507.791 146.202 502.408 136.393 496.496 126.721 490.077 117.218 483.178 107.919 475.824 98.8558 468.04 90.0613 459.854 81.5673 451.292 73.4055 442.38 65.6071 433.147 58.2026 423.62 51.2223 413.826 44.6959 403.793 38.6523 393.55 33.12 383.123 28.1265 372.542 23.6987 361.832 19.8625 350.261 16.4421 353.54 16.9923 339.287 16.3494C331.701 16.0073 325.829 9.58008 326.171 1.99388 326.513-5.59233 332.94-11.4648 340.527-11.1226ZM352.079 44.3563 271.207 0 355.215-38.0841Z" fill="#F57118" transform="matrix(0.799978 0.60003 0.60003 -0.799978 2974.41 504.608)"/><text fill="#00030A" font-family="FS Me Pro,FS Me Pro_MSFontService,sans-serif" font-weight="700" font-size="73" transform="matrix(1 0 0 1 3596.98 448)">SBST</text><text fill="#00030A" font-family="FS Me Pro,FS Me Pro_MSFontService,sans-serif" font-weight="700" font-size="73" transform="matrix(1 0 0 1 3326.58 528)">model</text><text fill="#00030A" font-family="FS Me Pro,FS Me Pro_MSFontService,sans-serif" font-weight="700" font-size="73" transform="matrix(1 0 0 1 3539.71 528)">-</text><text fill="#00030A" font-family="FS Me Pro,FS Me Pro_MSFontService,sans-serif" font-weight="700" font-size="73" transform="matrix(1 0 0 1 3568.35 528)">based testing</text><text fill="#00030A" font-family="FS Me Pro,FS Me Pro_MSFontService,sans-serif" font-weight="700" font-size="73" transform="matrix(1 0 0 1 3414.24 607)">stateful testing</text><path d="M340.527-11.1226 354.779-10.4798C355.89-10.4297 356.991-10.2449 358.057-9.92967L369.628-6.50929 381.768-2.20731 393.697 2.74042 405.39 8.29979 416.827 14.4376 427.985 21.1213 438.841 28.3193 449.374 36.0004 459.561 44.1344 469.38 52.6914 478.807 61.6418 487.821 70.957 496.398 80.6084 504.514 90.5679 512.145 100.808 519.266 111.301 525.854 122.021 531.882 132.941 537.324 144.034 542.153 155.276 546.341 166.639 549.859 178.099 552.676 189.629 554.761 201.202 556.079 212.79C556.919 220.338 551.481 227.137 543.934 227.976 536.387 228.816 529.588 223.378 528.748 215.831L527.686 206.016 525.949 196.103 523.556 186.123 520.523 176.108 516.871 166.094 512.619 156.114 507.791 146.202 502.408 136.393 496.496 126.721 490.077 117.218 483.178 107.919 475.824 98.8558 468.04 90.0613 459.854 81.5673 451.292 73.4055 442.38 65.6071 433.147 58.2026 423.62 51.2223 413.826 44.6959 403.793 38.6523 393.55 33.12 383.123 28.1265 372.542 23.6987 361.832 19.8625 350.261 16.4421 353.54 16.9923 339.287 16.3494C331.701 16.0073 325.829 9.58008 326.171 1.99388 326.513-5.59233 332.94-11.4648 340.527-11.1226ZM352.079 44.3563 271.207 0 355.215-38.0841Z" fill="#F57118" transform="matrix(0.799978 0.60003 0.60003 -0.799978 3301.75 1723.68)"/><text fill="#00030A" font-family="FS Me Pro,FS Me Pro_MSFontService,sans-serif" font-weight="700" font-size="73" transform="matrix(1 0 0 1 3883.46 1765)">(automated)</text><text fill="#00030A" font-family="FS Me Pro,FS Me Pro_MSFontService,sans-serif" font-weight="700" font-size="73" transform="matrix(1 0 0 1 3882.02 1845)">vulnerability</text><text fill="#00030A" font-family="FS Me Pro,FS Me Pro_MSFontService,sans-serif" font-weight="700" font-size="73" transform="matrix(1 0 0 1 3935.87 1924)">discovery</text><text fill="#00030A" font-family="FS Me Pro,FS Me Pro_MSFontService,sans-serif" font-weight="700" font-size="73" transform="matrix(1 0 0 1 3883.46 2003)">(automated)</text><text fill="#00030A" font-family="FS Me Pro,FS Me Pro_MSFontService,sans-serif" font-weight="700" font-size="73" transform="matrix(1 0 0 1 3892.33 2082)">exploitation</text><path d="M340.527-11.1226 354.779-10.4798C355.89-10.4297 356.991-10.2449 358.057-9.92967L369.628-6.50929 381.768-2.20731 393.697 2.74042 405.39 8.29979 416.827 14.4376 427.985 21.1213 438.841 28.3193 449.374 36.0004 459.561 44.1344 469.38 52.6914 478.807 61.6418 487.821 70.957 496.398 80.6084 504.514 90.5679 512.145 100.808 519.266 111.301 525.854 122.021 531.882 132.941 537.324 144.034 542.153 155.276 546.341 166.639 549.859 178.099 552.676 189.629 554.761 201.202 556.079 212.79C556.919 220.338 551.481 227.137 543.934 227.976 536.387 228.816 529.588 223.378 528.748 215.831L527.686 206.016 525.949 196.103 523.556 186.123 520.523 176.108 516.871 166.094 512.619 156.114 507.791 146.202 502.408 136.393 496.496 126.721 490.077 117.218 483.178 107.919 475.824 98.8558 468.04 90.0613 459.854 81.5673 451.292 73.4055 442.38 65.6071 433.147 58.2026 423.62 51.2223 413.826 44.6959 403.793 38.6523 393.55 33.12 383.123 28.1265 372.542 23.6987 361.832 19.8625 350.261 16.4421 353.54 16.9923 339.287 16.3494C331.701 16.0073 325.829 9.58008 326.171 1.99388 326.513-5.59233 332.94-11.4648 340.527-11.1226ZM352.079 44.3563 271.207 0 355.215-38.0841Z" fill="#F57118" transform="matrix(-0.898869 0.438217 0.438217 0.898869 3047.41 1595.01)"/><text fill="#00030A" font-family="FS Me Pro,FS Me Pro_MSFontService,sans-serif" font-weight="700" font-size="73" transform="matrix(1 0 0 1 2549.26 2120)">CEMA</text><path d="M340.527-11.1226 354.779-10.4798C355.89-10.4297 356.991-10.2449 358.057-9.92967L369.628-6.50929 381.768-2.20731 393.697 2.74042 405.39 8.29979 416.827 14.4376 427.985 21.1213 438.841 28.3193 449.374 36.0004 459.561 44.1344 469.38 52.6914 478.807 61.6418 487.821 70.957 496.398 80.6084 504.514 90.5679 512.145 100.808 519.266 111.301 525.854 122.021 531.882 132.941 537.324 144.034 542.153 155.276 546.341 166.639 549.859 178.099 552.676 189.629 554.761 201.202 556.079 212.79C556.919 220.338 551.481 227.137 543.934 227.976 536.387 228.816 529.588 223.378 528.748 215.831L527.686 206.016 525.949 196.103 523.556 186.123 520.523 176.108 516.871 166.094 512.619 156.114 507.791 146.202 502.408 136.393 496.496 126.721 490.077 117.218 483.178 107.919 475.824 98.8558 468.04 90.0613 459.854 81.5673 451.292 73.4055 442.38 65.6071 433.147 58.2026 423.62 51.2223 413.826 44.6959 403.793 38.6523 393.55 33.12 383.123 28.1265 372.542 23.6987 361.832 19.8625 350.261 16.4421 353.54 16.9923 339.287 16.3494C331.701 16.0073 325.829 9.58008 326.171 1.99388 326.513-5.59233 332.94-11.4648 340.527-11.1226ZM352.079 44.3563 271.207 0 355.215-38.0841Z" fill="#F57118" transform="matrix(0.799978 0.60003 0.60003 -0.799978 2897.54 1090.44)"/><text fill="#00030A" font-family="FS Me Pro,FS Me Pro_MSFontService,sans-serif" font-weight="700" font-size="73" transform="matrix(1 0 0 1 3452.46 1157)">(automated)</text><text fill="#00030A" font-family="FS Me Pro,FS Me Pro_MSFontService,sans-serif" font-weight="700" font-size="73" transform="matrix(1 0 0 1 3516.91 1237)">patching</text><path d="M2449.7 1251.58 2437.91 1259.62C2436.99 1260.24 2436 1260.76 2434.96 1261.14L2423.65 1265.35 2411.36 1269.19 2398.85 1272.39 2386.16 1274.96 2373.32 1276.91 2360.39 1278.26 2347.38 1279.02 2334.35 1279.19 2321.32 1278.8 2308.33 1277.84 2295.42 1276.34 2282.62 1274.3 2269.96 1271.72 2257.5 1268.63 2245.25 1265.01 2233.25 1260.89 2221.55 1256.27 2210.18 1251.15 2199.17 1245.54 2188.56 1239.45 2178.39 1232.87 2168.7 1225.81 2159.53 1218.28 2150.92 1210.27 2142.91 1201.79C2137.71 1196.26 2137.98 1187.56 2143.51 1182.35 2149.05 1177.15 2157.75 1177.43 2162.95 1182.96L2169.69 1190.17 2177.02 1197.06 2184.93 1203.61 2193.36 1209.8 2202.29 1215.62 2211.68 1221.05 2221.49 1226.09 2231.68 1230.7 2242.22 1234.89 2253.05 1238.64 2264.15 1241.94 2275.47 1244.78 2286.98 1247.15 2298.62 1249.03 2310.37 1250.42 2322.18 1251.31 2334.01 1251.69 2345.82 1251.56 2357.57 1250.91 2369.22 1249.72 2380.74 1248 2392.07 1245.74 2403.19 1242.93 2414.06 1239.57 2425.37 1235.37 2422.42 1236.9 2434.21 1228.86C2440.48 1224.58 2449.03 1226.2 2453.31 1232.47 2457.59 1238.75 2455.97 1247.3 2449.7 1251.58ZM2407.17 1214.13 2498.48 1201.09 2454.13 1281.96Z" fill="#F57118"/><text fill="#00030A" font-family="FS Me Pro,FS Me Pro_MSFontService,sans-serif" font-weight="700" font-size="73" transform="matrix(1 0 0 1 1831.22 1069)">Secure by</text><text fill="#00030A" font-family="FS Me Pro,FS Me Pro_MSFontService,sans-serif" font-weight="700" font-size="73" transform="matrix(1 0 0 1 1884.23 1149)">design</text></g></svg>